<svg xmlns="http://www.w3.org/2000/svg" style="display: none;"><symbol id="vk" viewBox="0 -120 512.00201 512"><title>vk</title><path d="m409.898438 153.902344 101.796874-153.902344h-156.117187l-2.914063 11.292969c-7.480468 28.992187-21.519531 68.285156-45.914062 90.839843-3.015625 2.785157-5.871094 5.023438-8.5 6.816407v-108.949219h-135.972656v30.101562h12.703125v68.222657c-15.242188-13.40625-34.394531-38.988281-39.410157-84.90625l-1.464843-13.417969h-134.105469l4.605469 18.65625c16.558593 67.09375 41.398437 122.058594 73.835937 163.367188 26.480469 33.726562 58.019532 58.488281 93.738282 73.59375 31.898437 13.492187 61.269531 16.800781 82.402343 16.800781 19.4375 0 31.902344-2.800781 32.949219-3.042969l11.464844-2.671875.59375-41.351563 51.058594 44.417969h161.355468zm0 0" fill="#7080e5"/><path d="m409.898438 153.902344 101.796874-153.902344h-156.117187l-2.914063 11.292969c-7.480468 28.992187-21.519531 68.285156-45.914062 90.839843-3.015625 2.785157-5.871094 5.023438-8.5 6.816407v-108.949219h-51.6875v272.257812c2.785156.109376 5.460938.160157 8.019531.160157 19.4375 0 31.902344-2.800781 32.949219-3.042969l11.464844-2.671875.59375-41.351563 51.058594 44.417969h161.355468zm0 0" fill="#4c60de"/></symbol><symbol id="twitter" viewBox="0 -22 512 511"><title>twitter</title><path d="m177.925781 468.238281c-28.6875 0-56.085937-5.378906-81.652343-16.058593-25.976563-10.851563-49.25-27-67.3125-46.699219l-28.710938-31.324219 42.003906 6.417969c39.332032 6.007812 64.554688 1.996093 79.859375-3.421875-12.273437-5.804688-27.261719-14.140625-42.449219-25.632813-47.402343-35.878906-74.179687-85.519531-77.433593-143.550781l-2.230469-39.816406 17.980469 18.398437c-2.914063-19.21875-3.421875-43.738281 2.480469-72.898437l9.367187-46.269532 11.292969 25.683594c2.621094-19.886718 9.203125-42.59375 24.171875-64.289062l19.511719-28.277344 7.417968 33.542969c8.292969 37.5 21.761719 68.65625 40.035156 92.601562 14.320313 18.765625 31.667969 33.21875 51.558594 42.960938 18.582032 9.101562 36.109375 12.421875 48.304688 13.554687-.601563-4.796875-.902344-9.640625-.902344-14.511718 0-64.023438 52.089844-116.113282 116.113281-116.113282 26.648438 0 52.683594 9.257813 73.304688 26.070313 18.003906 14.671875 31.242187 34.523437 37.894531 56.578125l53.46875 16.6875-48.558594 39.507812v6.449219c0 71.007813-28.167968 137.492187-79.320312 187.207031-49.472656 48.085938-116.757813 77.421875-189.460938 82.605469-5.625.398437-11.207031.597656-16.734375.597656zm0 0" fill="#00d7df"/><path d="m458.53125 135.183594c-6.652344-22.058594-19.890625-41.910156-37.894531-56.582032-20.621094-16.8125-46.65625-26.066406-73.308594-26.066406-37.019531 0-70.050781 17.417969-91.328125 44.488282v360.195312c48.742188-13.285156 92.9375-37.988281 128.121094-72.183594 51.152344-49.714844 79.320312-116.199218 79.320312-187.207031v-6.449219l48.558594-39.507812zm0 0" fill="#00aadf"/></symbol><symbol id="youtube" viewBox="0 -78 512 512"><title>youtube</title><path d="m0 82v191.894531c0 45.289063 36.714844 82 82 82h348c45.285156 0 82-36.710937 82-82v-191.894531c0-45.285156-36.714844-82-82-82h-348c-45.285156 0-82 36.710938-82 82zm0 0" fill="#ff0059"/><path d="m430 0h-174v355.894531h174c45.285156 0 82-36.710937 82-82v-191.894531c0-45.289062-36.714844-82-82-82zm0 0" fill="#d20041"/><path d="m199.304688 273.136719v-190.378907l144.335937 95.191407zm0 0" fill="#deecf1"/><path d="m256 120.148438v115.597656l87.640625-57.796875zm0 0" fill="#cfdde2"/></symbol><symbol id="instagram" viewBox="0 0 512 512"><title>instagram</title><path d="m0 106v300c0 58.542969 47.457031 106 106 106h300c58.542969 0 106-47.457031 106-106v-300c0-58.542969-47.457031-106-106-106h-300c-58.542969 0-106 47.457031-106 106zm0 0" fill="#fc5b94"/><path d="m406 0h-150v512h150c58.542969 0 106-47.457031 106-106v-300c0-58.542969-47.457031-106-106-106zm0 0" fill="#fc3e81"/><path d="m256 410.382812c-85.125 0-154.382812-69.257812-154.382812-154.382812s69.257812-154.382812 154.382812-154.382812 154.382812 69.257812 154.382812 154.382812-69.257812 154.382812-154.382812 154.382812zm0-278.765624c-68.585938 0-124.382812 55.796874-124.382812 124.382812s55.796874 124.382812 124.382812 124.382812 124.382812-55.796874 124.382812-124.382812-55.796874-124.382812-124.382812-124.382812zm0 0" fill="#fff"/><path d="m433.835938 108.910156c-3.371094 0-6.785157-.855468-9.910157-2.65625-4.601562-2.660156-7.894531-6.945312-9.269531-12.078125-1.375-5.132812-.667969-10.492187 1.988281-15.09375 2.65625-4.601562 6.945313-7.890625 12.074219-9.265625 5.132812-1.378906 10.492188-.671875 15.09375 1.988282 4.601562 2.65625 7.890625 6.941406 9.265625 12.074218 1.375 5.132813.671875 10.492188-1.984375 15.09375-3.679688 6.371094-10.378906 9.9375-17.257812 9.9375zm0 0" fill="#deecf1"/><g fill="#cfdde2"><path d="m433.835938 108.910156c-3.371094 0-6.785157-.855468-9.910157-2.65625-4.601562-2.660156-7.894531-6.945312-9.269531-12.078125-1.375-5.132812-.667969-10.492187 1.988281-15.09375 2.65625-4.601562 6.945313-7.890625 12.074219-9.265625 5.132812-1.378906 10.492188-.671875 15.09375 1.988282 4.601562 2.65625 7.890625 6.941406 9.265625 12.074218 1.375 5.132813.671875 10.492188-1.984375 15.09375-3.679688 6.371094-10.378906 9.9375-17.257812 9.9375zm0 0"/><path d="m256 101.617188v30c68.585938 0 124.382812 55.796874 124.382812 124.382812s-55.796874 124.382812-124.382812 124.382812v30c85.125 0 154.382812-69.257812 154.382812-154.382812s-69.257812-154.382812-154.382812-154.382812zm0 0"/></g></symbol><symbol id="whatsapp" viewBox="0 0 512 512"><title>whatsapp</title><path d="m437.019531 74.785156c-48.351562-48.226562-112.640625-74.785156-181.019531-74.785156s-132.667969 26.558594-181.019531 74.785156c-48.351563 48.226563-74.980469 112.347656-74.980469 180.550782 0 53.921874 16.5 105.105468 47.808594 148.597656l-47.472656 108.066406 118.71875-40.898438c40.945312 25.914063 88.128906 39.570313 136.945312 39.570313 68.378906 0 132.667969-26.558594 181.019531-74.785156 48.351563-48.226563 74.980469-112.347657 74.980469-180.550781 0-68.199219-26.628906-132.324219-74.980469-180.550782zm0 0" fill="#9bdd39"/><path d="m512 255.335938c0-68.203126-26.628906-132.324219-74.980469-180.550782-48.234375-48.105468-112.324219-74.648437-180.515625-74.7773435v510.6601565c68.191406-.128907 132.28125-26.671875 180.515625-74.78125 48.351563-48.226563 74.980469-112.347657 74.980469-180.550781zm0 0" fill="#93bf00"/><path d="m406.984375 343.050781c-23.390625 34.496094-23.390625 34.496094-23.914063 35.132813-13.011718 15.84375-33.328124 24.035156-58.679687 24.035156-9.4375 0-19.570313-1.132812-30.289063-3.433594-36.027343-7.71875-75.355468-27.890625-110.746093-56.800781-35.386719-28.914063-62.964844-63.398437-77.648438-97.105469-16.101562-36.96875-15.128906-69.316406 2.746094-91.082031.519531-.625.519531-.625 31.070313-31.667969l12.210937-12.40625 67.457031 89.457032-23.8125 29c11.601563 16.039062 25.3125 33.144531 42.609375 47.277343 17.296875 14.132813 36.8125 24.167969 54.863281 32.355469l23.992188-29.210938 99.671875 50.394532zm0 0" fill="#fff"/><path d="m316.84375 278.601562-23.988281 29.210938c-11.835938-5.367188-24.296875-11.539062-36.351563-19.128906v98.058594c12.722656 5.355468 25.351563 9.421874 37.597656 12.042968 10.71875 2.300782 20.851563 3.433594 30.289063 3.433594 25.351563 0 45.667969-8.191406 58.679687-24.035156.527344-.636719.527344-.636719 23.914063-35.132813l9.53125-14.054687zm0 0" fill="#deecf1"/></symbol><symbol id="telegram" viewBox="0 -24 512 512"><title>telegram</title><path d="m512 0-512 217.628906 134.222656 53.269532 47.78125 179.605468 87.980469-85.246094 143.132813 98.855469zm-323.023438 293.921875-6.972656 156.582031-18.035156-184.34375 348.03125-266.160156zm0 0" fill="#00d7df"/><path d="m512 0-323.023438 293.921875-6.972656 156.582031 87.980469-85.246094 143.132813 98.855469zm0 0" fill="#00aadf"/></symbol><symbol id="google-play" viewBox="-62 0 512 512"><title>google-play</title><path d="m272.929688 180-272.929688-180v512l282.496094-186.3125 105.679687-69.6875zm0 0" fill="#00d7df"/><path d="m388.175781 256-112.207031 73.914062-74.445312-73.878906 71.40625-76.035156zm0 0" fill="#fdbf00"/><path d="m275.96875 329.914062-275.96875 182.085938v-41.75l201.453125-214.214844zm0 0" fill="#ff0059"/><path d="m0 0 272.929688 180-71.453126 76.023438-201.476562-211.554688zm0 0" fill="#9bdd39"/><path d="m0 44.46875 201.476562 211.554688-201.476562 214.226562zm0 0" fill="#00d7df"/><path d="m275.96875 329.914062-275.96875 182.085938v-41.75l201.453125-214.214844zm0 0" fill="#d20041"/><path d="m387.796875 256.25h-186.058594l74.230469 73.664062zm0 0" fill="#ff9100"/><path d="m0 470.25 201.265625-214h-201.265625zm0 0" fill="#00aadf"/></symbol><symbol id="apple" viewBox="-27 0 512 512.00092"><title>apple</title><path d="m304.484375 512c-10.925781 0-22.089844-1.402344-33.417969-4.222656-14.769531-3.679688-28.699218-9.664063-41.542968-17.835938-12.847657 8.171875-26.777344 14.15625-41.542969 17.835938-10.917969 2.71875-21.675781 4.070312-32.1875 4.070312-29.929688 0-57.894531-10.945312-82.175781-32.417968-29.445313-26.035157-51.679688-65.992188-64.300782-115.546876-7.683594-30.164062-10.636718-59.21875-8.777344-86.347656 1.96875-28.707031 9.242188-53.765625 21.628907-74.488281 16.644531-27.855469 42.375-46.796875 74.414062-54.777344 24.796875-6.175781 51.214844-5.445312 76.402344 2.113281 19.980469 5.996094 39.304687 16.304688 56.539063 30.09375 17.234374-13.789062 36.558593-24.101562 56.542968-30.09375 25.1875-7.558593 51.601563-8.289062 76.398438-2.113281 18.164062 4.523438 34.394531 12.617188 48.238281 24.054688l14.105469 11.652343-14.140625 11.609376c-19.734375 16.207031-31.054688 40.128906-31.054688 65.632812 0 38.742188 26.164063 72.542969 63.625 82.195312l14.285157 3.679688-3.375 14.359375c-.429688 1.816406-.867188 3.636719-1.332032 5.457031-12.515625 49.148438-35.398437 88.679688-66.179687 114.324219-24.460938 20.378906-52.410157 30.765625-82.152344 30.765625zm0 0" fill="#deecf1"/><path d="m245.773438 135.4375c-.722657 0-1.1875-.011719-1.359376-.015625l-12.597656-.328125-1.902344-12.460938c-.347656-2.261718-8.109374-55.761718 21.835938-89.722656h.003906c29.949219-33.964844 83.996094-32.957031 86.285156-32.894531l12.601563.328125 1.902344 12.460938c.34375 2.261718 8.109375 55.761718-21.839844 89.722656-27.703125 31.414062-76.027344 32.910156-84.929687 32.910156zm0 0" fill="#deecf1"/><g fill="#cfdde2"><path d="m245.773438 135.4375c-.722657 0-1.1875-.011719-1.359376-.015625l-12.597656-.328125-1.902344-12.460938c-.347656-2.261718-8.109374-55.761718 21.835938-89.722656h.003906c29.949219-33.964844 83.996094-32.957031 86.285156-32.894531l12.601563.328125 1.902344 12.460938c.34375 2.261718 8.109375 55.761718-21.839844 89.722656-27.703125 31.414062-76.027344 32.910156-84.929687 32.910156zm0 0"/><path d="m443.238281 343.414062c-37.464843-9.652343-63.628906-43.453124-63.628906-82.195312 0-25.503906 11.320313-49.425781 31.058594-65.632812l14.140625-11.609376-14.105469-11.652343c-13.84375-11.4375-30.078125-19.527344-48.242187-24.054688-24.792969-6.175781-51.210938-5.445312-76.398438 2.113281-19.984375 5.996094-39.308594 16.308594-56.542969 30.09375l.003907 309.464844c12.84375 8.171875 26.773437 14.15625 41.539062 17.835938 11.328125 2.824218 22.496094 4.222656 33.421875 4.222656 29.742187 0 57.691406-10.386719 82.148437-30.765625 30.78125-25.644531 53.664063-65.175781 66.183594-114.324219.460938-1.820312.902344-3.640625 1.328125-5.457031l3.375-14.359375zm0 0"/></g></symbol></svg>